<svg id="Layer_1" data-name="Layer 1" xmlns="http://www.w3.org/2000/svg" viewBox="0 0 335.87 71.17"><defs><style>.cls-1,.cls-4{fill:#9a4724;}.cls-2{fill:#565656;}.cls-3{fill:#fff;}.cls-3,.cls-4{fill-rule:evenodd;}</style></defs><path class="cls-1" d="M6.76,61.86V12.72H18.61V31.83H35.7V12.72H47.55V61.86H35.7V41H18.61V61.86Z" transform="translate(-6.76 -5.58)"/><path class="cls-1" d="M100.9,12.72h11.86V52.66h19.42v9.2H100.9Z" transform="translate(-6.76 -5.58)"/><path class="cls-1" d="M137.72,12.72l9.91,18.1,10-18.1h13l-17.4,28.94v20.2H141.39V41.66l-17-28.94Z" transform="translate(-6.76 -5.58)"/><path class="cls-1" d="M206.91,43.46a21.63,21.63,0,0,1-1.29,7.68A18,18,0,0,1,202.15,57,15.33,15.33,0,0,1,197,60.65a15.5,15.5,0,0,1-6.24,1.29,17.39,17.39,0,0,1-6.16-1,15.81,15.81,0,0,1-4.92-3.06h-.15l-.47,4h-3.2V5.93h4.06V30.18a17.7,17.7,0,0,1,4.56-3.42,13.43,13.43,0,0,1,6.67-1.64,16.61,16.61,0,0,1,6.16,1.14,13.84,13.84,0,0,1,5,3.43,15.93,15.93,0,0,1,3.36,5.74A24.48,24.48,0,0,1,206.91,43.46Zm-4.22.07q0-7.48-3.31-11.31a11.46,11.46,0,0,0-11.86-3.33,15.45,15.45,0,0,0-3,1.3A15,15,0,0,0,182,32a18,18,0,0,0-2,2.09V54.66a11.69,11.69,0,0,0,4.25,2.87,14.32,14.32,0,0,0,5.65,1.13,12.23,12.23,0,0,0,4.88-1,12.09,12.09,0,0,0,4.09-2.91A14.09,14.09,0,0,0,201.64,50,18.56,18.56,0,0,0,202.69,43.53Z" transform="translate(-6.76 -5.58)"/><path class="cls-1" d="M241.46,43H215.33v1.1q0,6.86,3.7,10.72t10.1,3.86A26.29,26.29,0,0,0,238.65,57l.94,3.12a22.71,22.71,0,0,1-4.88,1.36,32.86,32.86,0,0,1-5.81.51,21.92,21.92,0,0,1-6.9-1.07,15.11,15.11,0,0,1-5.66-3.31,15.66,15.66,0,0,1-3.82-5.7,22.07,22.07,0,0,1-1.4-8.33,23.46,23.46,0,0,1,1.17-7.61,16.35,16.35,0,0,1,3.35-5.82,15,15,0,0,1,5.15-3.68,16.24,16.24,0,0,1,6.63-1.3,14.84,14.84,0,0,1,5.73,1.08,12.33,12.33,0,0,1,4.45,3.07,14.17,14.17,0,0,1,2.84,4.82,18.17,18.17,0,0,1,1,6.23Zm-4.21-3.27a16.24,16.24,0,0,0-.55-4.14A10.34,10.34,0,0,0,235,31.93a9,9,0,0,0-3.12-2.56,10.18,10.18,0,0,0-4.65-1,11.11,11.11,0,0,0-7.91,3,13.06,13.06,0,0,0-3.79,8.36Z" transform="translate(-6.76 -5.58)"/><path class="cls-1" d="M247.46,28.78a34.11,34.11,0,0,1,6.75-2.8,24.53,24.53,0,0,1,6.59-.86,15.49,15.49,0,0,1,4.72.7,10.14,10.14,0,0,1,3.9,2.24,10.62,10.62,0,0,1,2.65,4.05,17,17,0,0,1,1,6.13V61.86h-2.81l-.86-5.38h-.15a14.61,14.61,0,0,1-5.31,4.09,16.39,16.39,0,0,1-6.78,1.37,14.8,14.8,0,0,1-4.76-.74,11.11,11.11,0,0,1-3.79-2.15,9.82,9.82,0,0,1-2.49-3.39,11.42,11.42,0,0,1,.27-9.48,10.14,10.14,0,0,1,3.28-3.62,14.86,14.86,0,0,1,5-2.15,27.83,27.83,0,0,1,6.51-.7H269V37.48q0-4.9-2.34-7a8.81,8.81,0,0,0-6.08-2.09,25,25,0,0,0-5.23.65A25.79,25.79,0,0,0,249,31.44ZM269,43h-6.47a23.79,23.79,0,0,0-6,.67,13.64,13.64,0,0,0-4.09,1.73,6.26,6.26,0,0,0-2.3,2.5,7,7,0,0,0-.71,3.1,7.93,7.93,0,0,0,.71,3.49A6.74,6.74,0,0,0,252,56.86a7.42,7.42,0,0,0,2.77,1.37,12.8,12.8,0,0,0,3.39.43,12.2,12.2,0,0,0,2.89-.35A12.5,12.5,0,0,0,264,57.22a14.66,14.66,0,0,0,2.77-1.87A10.46,10.46,0,0,0,269,52.58Z" transform="translate(-6.76 -5.58)"/><path class="cls-1" d="M305.73,5.93h4.06V61.86h-3.28l-.55-4h-.15a12.26,12.26,0,0,1-4.14,2.9,15.84,15.84,0,0,1-6.47,1.13,16.06,16.06,0,0,1-5.81-1.1,15,15,0,0,1-5.15-3.39,16.83,16.83,0,0,1-3.7-5.74,21.64,21.64,0,0,1-1.41-8.18,24.32,24.32,0,0,1,1.13-7.61,16,16,0,0,1,3.32-5.82,14.76,14.76,0,0,1,5.26-3.68,17.76,17.76,0,0,1,7-1.3,14.36,14.36,0,0,1,9.91,3.54Zm0,26.74a10.77,10.77,0,0,0-4.13-3.13,12.48,12.48,0,0,0-5.07-1.14,15.56,15.56,0,0,0-5,.79,11.25,11.25,0,0,0-4.21,2.54,12.18,12.18,0,0,0-2.92,4.61,19.62,19.62,0,0,0-1.1,7,20.39,20.39,0,0,0,1.1,7.15,12.77,12.77,0,0,0,2.92,4.73,11.14,11.14,0,0,0,4.17,2.65,14.24,14.24,0,0,0,4.84.83,12.47,12.47,0,0,0,5.73-1.21,9.4,9.4,0,0,0,3.63-3Z" transform="translate(-6.76 -5.58)"/><path class="cls-1" d="M337.47,30.18A20.16,20.16,0,0,0,329,28.4c-2.8,0-4.91.57-6.31,1.71a5.34,5.34,0,0,0-2.11,4.36,4.87,4.87,0,0,0,1.79,4.06,19.51,19.51,0,0,0,6.32,2.69l2.34.69a14.62,14.62,0,0,1,6.79,3.79,8.67,8.67,0,0,1,2.34,6.15,9.43,9.43,0,0,1-.86,4,9,9,0,0,1-2.5,3.22,11.56,11.56,0,0,1-4.09,2.13,19.1,19.1,0,0,1-5.66.76,28.18,28.18,0,0,1-6.16-.59,22,22,0,0,1-4.68-1.52l1.09-3.13a19.93,19.93,0,0,0,4.22,1.47,23.47,23.47,0,0,0,5.14.49A12,12,0,0,0,333.5,57a5.45,5.45,0,0,0,2.42-4.78A5.81,5.81,0,0,0,334.16,48q-1.76-1.78-6.2-3.15l-2.5-.76q-9.12-2.81-9.12-9.33a8.67,8.67,0,0,1,.89-3.91,8.8,8.8,0,0,1,2.5-3,12.22,12.22,0,0,1,3.82-2,16,16,0,0,1,5-.72,35.33,35.33,0,0,1,5.14.39A16.18,16.18,0,0,1,338.49,27Z" transform="translate(-6.76 -5.58)"/><path class="cls-2" d="M62.89,76.59V67.14h2.28v3.67h3.29V67.14h2.28v9.45H68.46v-4H65.17v4Z" transform="translate(-6.76 -5.58)"/><path class="cls-2" d="M74.85,67.14v9.45H72.57V67.14Z" transform="translate(-6.76 -5.58)"/><path class="cls-2" d="M77.29,67.14h2.85l1,3.32c.07.19.15.43.22.69s.15.54.23.83l.21.86q.09.43.15.81h.08c0-.27.1-.56.17-.88s.15-.62.23-.91.14-.57.21-.82.13-.45.17-.58l1-3.32h2.85l.67,9.45H85.21l-.16-3.2c0-.3,0-.62,0-1s0-.72,0-1.09,0-.73,0-1.09v-1h0c-.07.33-.15.67-.23,1l-.27,1c-.09.35-.18.68-.27,1s-.18.62-.27.89l-1,3.39H81.13L80,73.22c-.09-.29-.18-.59-.27-.91s-.18-.66-.26-1-.17-.69-.25-1-.15-.69-.21-1h0c0,.32,0,.67,0,1s0,.75,0,1.13,0,.73,0,1.08,0,.64,0,.9l-.16,3.2h-2.1Z" transform="translate(-6.76 -5.58)"/><path class="cls-2" d="M91.83,67.14h2.43l3.4,9.45H95.25l-.65-2H91.42l-.64,2H88.39Zm.09,5.78h2.16l-.36-1.15c-.12-.37-.25-.76-.37-1.18s-.23-.8-.32-1.16h0c-.1.36-.22.74-.35,1.14s-.25.81-.37,1.2Z" transform="translate(-6.76 -5.58)"/><path class="cls-2" d="M98.77,67.14h2.28v7.68h3.74v1.77h-6Z" transform="translate(-6.76 -5.58)"/><path class="cls-2" d="M108.39,67.14h2.43l3.4,9.45h-2.41l-.65-2H108l-.64,2H105Zm.09,5.78h2.16l-.36-1.15c-.12-.37-.25-.76-.37-1.18s-.23-.8-.32-1.16h0c-.1.36-.22.74-.35,1.14s-.25.81-.37,1.2Z" transform="translate(-6.76 -5.58)"/><path class="cls-2" d="M115.62,67.14l1.9,3.48,1.92-3.48H122l-3.35,5.57v3.88h-2.28V72.71l-3.27-5.57Z" transform="translate(-6.76 -5.58)"/><path class="cls-2" d="M124.15,67.14h2.43L130,76.59h-2.42l-.64-2h-3.18l-.65,2h-2.38Zm.09,5.78h2.16L126,71.77c-.12-.37-.24-.76-.37-1.18s-.23-.8-.32-1.16h0c-.1.36-.21.74-.34,1.14s-.26.81-.38,1.2Z" transform="translate(-6.76 -5.58)"/><path class="cls-2" d="M131.1,67.14h2.1l2.07,3.16c.37.58.72,1.16,1.07,1.75a12.64,12.64,0,0,1,.8,1.62h0c0-.61-.08-1.21-.09-1.81s0-1.21,0-1.81V67.14h2.1v9.45h-2.1l-2.19-3.23a16.69,16.69,0,0,1-1-1.62,11.67,11.67,0,0,1-.77-1.73h0c0,.62.08,1.23.09,1.81s0,1.17,0,1.77v3h-2.1Z" transform="translate(-6.76 -5.58)"/><path class="cls-2" d="M144.33,67.14h3.75a4.2,4.2,0,0,1,1.43.23,3,3,0,0,1,1,.64,2.55,2.55,0,0,1,.63.95,3.09,3.09,0,0,1,.21,1.15,2.81,2.81,0,0,1-.62,1.8,2.66,2.66,0,0,1-.58.54,4,4,0,0,1-.59.33l2.27,3.81h-2.63l-1.68-3.41h-.94v3.41h-2.28Zm2.28,4.32h.69a2.26,2.26,0,0,0,1.26-.32,1.12,1.12,0,0,0,.48-1,1.19,1.19,0,0,0-.39-.94,1.71,1.71,0,0,0-1.13-.34h-.91Z" transform="translate(-6.76 -5.58)"/><path class="cls-2" d="M152.7,67.14H155V72.8a2.69,2.69,0,0,0,.43,1.64,1.55,1.55,0,0,0,1.35.59,1.46,1.46,0,0,0,1.3-.58,2.59,2.59,0,0,0,.4-1.48V67.14h2.28v5.64q0,4-4,4a4.28,4.28,0,0,1-3-1,3.93,3.93,0,0,1-1.08-3.05Z" transform="translate(-6.76 -5.58)"/><path class="cls-2" d="M165.94,67.14a6.85,6.85,0,0,1,2,.28,4.35,4.35,0,0,1,1.57.86,3.73,3.73,0,0,1,1,1.42,5,5,0,0,1,.36,2,5.2,5.2,0,0,1-.42,2.18,4.23,4.23,0,0,1-1.15,1.53,4.8,4.8,0,0,1-1.7.91,7,7,0,0,1-2.07.3h-3V67.14Zm-1.09,7.71h.58a4.45,4.45,0,0,0,1.16-.15,2.36,2.36,0,0,0,1-.52,2.54,2.54,0,0,0,.67-1,4,4,0,0,0,.26-1.53,2.72,2.72,0,0,0-.77-2.08,2.94,2.94,0,0,0-2.07-.71h-.82Z" transform="translate(-6.76 -5.58)"/><path class="cls-2" d="M172.29,67.14H176a4.2,4.2,0,0,1,1.43.23,3,3,0,0,1,1,.64,2.55,2.55,0,0,1,.63.95,3.09,3.09,0,0,1,.21,1.15,2.81,2.81,0,0,1-.62,1.8,2.66,2.66,0,0,1-.58.54,4,4,0,0,1-.59.33l2.27,3.81h-2.63l-1.68-3.41h-.94v3.41h-2.28Zm2.28,4.32h.69a2.26,2.26,0,0,0,1.26-.32,1.12,1.12,0,0,0,.48-1,1.19,1.19,0,0,0-.39-.94,1.71,1.71,0,0,0-1.13-.34h-.91Z" transform="translate(-6.76 -5.58)"/><path class="cls-2" d="M183.57,67.14H186l3.4,9.45H187l-.65-2h-3.18l-.64,2h-2.39Zm.09,5.78h2.16l-.36-1.15c-.12-.37-.25-.76-.37-1.18s-.23-.8-.32-1.16h0c-.1.36-.22.74-.35,1.14s-.25.81-.37,1.2Z" transform="translate(-6.76 -5.58)"/><path class="cls-2" d="M190.51,76.59V67.14h2.28V71l3-3.87h2.84l-3.41,4.09,3.71,5.36h-2.79l-2.58-4-.77.83v3.12Z" transform="translate(-6.76 -5.58)"/><path class="cls-2" d="M202.68,67a6.58,6.58,0,0,1,1.71.2,6.28,6.28,0,0,1,1.24.49l-.51,1.66a6.91,6.91,0,0,0-1.18-.47,4.19,4.19,0,0,0-1.13-.17,1.89,1.89,0,0,0-1.05.25.8.8,0,0,0-.36.68.78.78,0,0,0,.35.7,6,6,0,0,0,1.06.46l.89.28a5.72,5.72,0,0,1,1,.44,3.4,3.4,0,0,1,.77.61,2.51,2.51,0,0,1,.51.78,2.42,2.42,0,0,1,.18.94A2.9,2.9,0,0,1,205.9,75a2.66,2.66,0,0,1-.68.93,3.09,3.09,0,0,1-1.16.64,5,5,0,0,1-1.64.24,7.74,7.74,0,0,1-1.69-.19,6.75,6.75,0,0,1-1.47-.54l.51-1.66a8,8,0,0,0,1.26.49,4.57,4.57,0,0,0,1.29.19,1.87,1.87,0,0,0,1.14-.27.83.83,0,0,0,.36-.71.8.8,0,0,0-.06-.3.79.79,0,0,0-.24-.3,1.73,1.73,0,0,0-.48-.29,5.36,5.36,0,0,0-.78-.3l-.74-.25a7.89,7.89,0,0,1-1-.44,3.24,3.24,0,0,1-.78-.56,2.62,2.62,0,0,1-.5-.77,2.73,2.73,0,0,1-.18-1,2.94,2.94,0,0,1,.23-1.14,2.62,2.62,0,0,1,.69-.9,3.21,3.21,0,0,1,1.13-.6A4.81,4.81,0,0,1,202.68,67Z" transform="translate(-6.76 -5.58)"/><path class="cls-2" d="M207.54,76.59V67.14h2.28v3.67h3.28V67.14h2.28v9.45H213.1v-4h-3.28v4Z" transform="translate(-6.76 -5.58)"/><path class="cls-2" d="M219.9,67.14h2.43l3.4,9.45h-2.41l-.65-2h-3.18l-.64,2h-2.39Zm.09,5.78h2.16l-.36-1.15c-.12-.37-.25-.76-.37-1.18s-.23-.8-.32-1.16h0c-.1.36-.22.74-.35,1.14s-.25.81-.37,1.2Z" transform="translate(-6.76 -5.58)"/><path class="cls-2" d="M229.41,73.77a2.82,2.82,0,0,1,.18-1,3,3,0,0,1,.48-.81,3.68,3.68,0,0,1,.69-.61,4.64,4.64,0,0,1,.79-.42,3.93,3.93,0,0,1-.6-.84,2.17,2.17,0,0,1-.27-1.06,2.25,2.25,0,0,1,.77-1.79,3.71,3.71,0,0,1,3.3-.48,2.59,2.59,0,0,1,.89.51,2.33,2.33,0,0,1,.57.75,2.12,2.12,0,0,1,.2.9,1.91,1.91,0,0,1-.12.68,2.52,2.52,0,0,1-.32.58,2.38,2.38,0,0,1-.47.48,3.64,3.64,0,0,1-.56.34l-1.05-1a1.6,1.6,0,0,0,.43-.43,1.09,1.09,0,0,0,.17-.61.86.86,0,0,0-.27-.65.89.89,0,0,0-.64-.25.83.83,0,0,0-.66.25,1,1,0,0,0-.23.66,1.62,1.62,0,0,0,.24.83,5.65,5.65,0,0,0,.8,1l2.32,2.4a7.11,7.11,0,0,0,.38-.78,7.72,7.72,0,0,0,.33-.87l1.6.65a11.58,11.58,0,0,1-.53,1.26,7.46,7.46,0,0,1-.56,1l2.19,2.27h-2.54l-.9-.92a4.24,4.24,0,0,1-1.14.74,4.31,4.31,0,0,1-1.84.35,4.73,4.73,0,0,1-1.58-.24,3.16,3.16,0,0,1-1.13-.63,2.44,2.44,0,0,1-.69-.94A2.92,2.92,0,0,1,229.41,73.77Zm2.11-.08a1.26,1.26,0,0,0,.49,1.06,2,2,0,0,0,1.3.38,2.13,2.13,0,0,0,1-.21,2.24,2.24,0,0,0,.58-.41l-2.32-2.41a2.11,2.11,0,0,0-.72.57A1.54,1.54,0,0,0,231.52,73.69Z" transform="translate(-6.76 -5.58)"/><path class="cls-2" d="M243.48,67.14h3.42a5.63,5.63,0,0,1,1.54.2,3.49,3.49,0,0,1,1.18.56,2.73,2.73,0,0,1,.75.91,2.84,2.84,0,0,1,.26,1.22,2.86,2.86,0,0,1-1.16,2.43,3.6,3.6,0,0,1-1.25.58,5.61,5.61,0,0,1-1.5.19h-1v3.36h-2.28Zm2.28,4.37h.82a2.82,2.82,0,0,0,.65-.08,1.66,1.66,0,0,0,.54-.23,1.19,1.19,0,0,0,.38-.42,1.33,1.33,0,0,0,.14-.63,1.14,1.14,0,0,0-.44-1,1.94,1.94,0,0,0-1.18-.33h-.91Z" transform="translate(-6.76 -5.58)"/><path class="cls-2" d="M251.92,67.14h3.75a4.16,4.16,0,0,1,1.43.23,3,3,0,0,1,1,.64,2.65,2.65,0,0,1,.62.95,3.09,3.09,0,0,1,.21,1.15,3,3,0,0,1-.17,1,3,3,0,0,1-.44.77,2.7,2.7,0,0,1-.59.54,4,4,0,0,1-.58.33l2.26,3.81h-2.62l-1.68-3.41h-1v3.41h-2.28Zm2.28,4.32h.69a2.26,2.26,0,0,0,1.26-.32,1.12,1.12,0,0,0,.48-1,1.19,1.19,0,0,0-.39-.94,1.68,1.68,0,0,0-1.12-.34h-.92Z" transform="translate(-6.76 -5.58)"/><path class="cls-2" d="M263.2,67.14h2.43L269,76.59h-2.42l-.64-2H262.8l-.65,2h-2.38Zm.09,5.78h2.16l-.36-1.15c-.12-.37-.24-.76-.37-1.18s-.23-.8-.32-1.16h0c-.1.36-.21.74-.34,1.14s-.26.81-.38,1.2Z" transform="translate(-6.76 -5.58)"/><path class="cls-2" d="M270.43,67.14l1.91,3.48,1.92-3.48h2.5l-3.34,5.57v3.88h-2.28V72.71l-3.27-5.57Z" transform="translate(-6.76 -5.58)"/><path class="cls-2" d="M277.71,67.14H284v1.74h-4v1.93h3.64v1.73H280v2.31h4.07v1.74h-6.34Z" transform="translate(-6.76 -5.58)"/><path class="cls-2" d="M285.4,67.14h3.75a4.16,4.16,0,0,1,1.43.23,3,3,0,0,1,1,.64,2.65,2.65,0,0,1,.62.95,3.09,3.09,0,0,1,.21,1.15,3,3,0,0,1-.17,1,3,3,0,0,1-.44.77,2.7,2.7,0,0,1-.59.54,4,4,0,0,1-.58.33l2.26,3.81H290.3l-1.67-3.41h-.95v3.41H285.4Zm2.28,4.32h.69a2.26,2.26,0,0,0,1.26-.32,1.12,1.12,0,0,0,.48-1,1.19,1.19,0,0,0-.39-.94,1.68,1.68,0,0,0-1.12-.34h-.92Z" transform="translate(-6.76 -5.58)"/><path class="cls-2" d="M297.94,67.14h2.85l1,3.32c.07.19.14.43.22.69s.15.54.22.83.15.57.21.86.12.56.16.81h.08a6.75,6.75,0,0,1,.17-.88c.07-.31.15-.62.22-.91s.15-.57.22-.82.13-.45.16-.58l1-3.32h2.85l.67,9.45h-2.13l-.16-3.2c0-.3,0-.62-.05-1s0-.72,0-1.09,0-.73,0-1.09v-1h0q-.1.49-.24,1c-.08.35-.17.7-.26,1s-.18.68-.27,1-.18.62-.27.89l-1.05,3.39h-1.71l-1.09-3.37c-.09-.29-.18-.59-.27-.91s-.18-.66-.27-1l-.24-1q-.12-.53-.21-1h-.05c0,.32,0,.67,0,1l0,1.13c0,.37,0,.73,0,1.08s0,.64,0,.9l-.17,3.2H297.3Z" transform="translate(-6.76 -5.58)"/><path class="cls-2" d="M312.47,67.14h2.44l3.4,9.45h-2.42l-.64-2h-3.18l-.64,2H309Zm.09,5.78h2.16l-.35-1.15c-.12-.37-.25-.76-.37-1.18s-.23-.8-.32-1.16h0c-.09.36-.21.74-.34,1.14s-.25.81-.37,1.2Z" transform="translate(-6.76 -5.58)"/><path class="cls-2" d="M319.42,67.14h2.28v7.68h3.74v1.77h-6Z" transform="translate(-6.76 -5.58)"/><path class="cls-2" d="M329,67.14h2.43l3.4,9.45h-2.41l-.65-2h-3.18l-.65,2H325.6Zm.09,5.78h2.16l-.36-1.15c-.13-.37-.25-.76-.37-1.18s-.24-.8-.33-1.16h0c-.1.36-.22.74-.35,1.14s-.25.81-.38,1.2Z" transform="translate(-6.76 -5.58)"/><path class="cls-2" d="M339.17,67a6.58,6.58,0,0,1,1.71.2,6.15,6.15,0,0,1,1.25.49l-.51,1.66a6.91,6.91,0,0,0-1.18-.47,4.19,4.19,0,0,0-1.13-.17,1.89,1.89,0,0,0-1.05.25.8.8,0,0,0-.36.68.77.77,0,0,0,.34.7,6.21,6.21,0,0,0,1.07.46l.89.28a5.72,5.72,0,0,1,1,.44,3.4,3.4,0,0,1,.77.61,2.7,2.7,0,0,1,.51.78,2.62,2.62,0,0,1,.18.94A2.9,2.9,0,0,1,342.4,75a2.66,2.66,0,0,1-.68.93,3.09,3.09,0,0,1-1.16.64,5,5,0,0,1-1.64.24,7.74,7.74,0,0,1-1.69-.19,7,7,0,0,1-1.48-.54l.52-1.66a8,8,0,0,0,1.26.49,4.56,4.56,0,0,0,1.28.19,1.91,1.91,0,0,0,1.15-.27.82.82,0,0,0,.35-.71.65.65,0,0,0-.06-.3.67.67,0,0,0-.23-.3,1.73,1.73,0,0,0-.48-.29,5.54,5.54,0,0,0-.79-.3l-.73-.25a7.89,7.89,0,0,1-1-.44,3.05,3.05,0,0,1-.78-.56,2.62,2.62,0,0,1-.5-.77,2.73,2.73,0,0,1-.18-1,2.94,2.94,0,0,1,.23-1.14,2.62,2.62,0,0,1,.69-.9,3.21,3.21,0,0,1,1.13-.6A4.75,4.75,0,0,1,339.17,67Z" transform="translate(-6.76 -5.58)"/><path class="cls-1" d="M62.84,54.22a18.06,18.06,0,0,0-7.5,6.62C54,63,53.11,65.46,51.29,67.23c-4.13,4-9.71,1.53-14.6,1.23a23,23,0,0,0-11.92,3c-1.44.73-.17,2.89,1.26,2.16A20.56,20.56,0,0,1,36.55,71c2.49.14,4.9.87,7.38,1.06a12.27,12.27,0,0,0,7.91-2c2.11-1.51,3.31-3.72,4.53-5.94a17,17,0,0,1,7.73-7.68c1.45-.71.18-2.87-1.26-2.16Z" transform="translate(-6.76 -5.58)"/><circle class="cls-1" cx="68.11" cy="32.86" r="22.68"/><path class="cls-3" d="M73.54,53c.18.47.51.88,1.21.62,1-.39,2.87-1,3.25.27.1.36-.58,2.84-.58,3.21,0,1.1.17,1.72,1.24,1.7s.23-1.42.23-1.79.15-1.19.15-1.56,1-1.11,1.33-.29c.15.34-.29,1.41-.29,1.78,0,.61.09,1.26.89,1.26s1.68-2.54,1.77-2.86a.17.17,0,0,0,0-.07c0-1.39.39-2.35-1.72-2.83-.57-.13-1.18.15-1.9-.48l0,0c-1-.5-1.53-3-1.53-3.81a1.54,1.54,0,0,1,.87-1.66.28.28,0,0,1,.37.16c.07.19.15.39.1.39-.71,0-.13,5.51,2.52,4.36.68-.3,1.44-.73,1-2.55-.62-2.89-.68-4.75-1.79-5.18-.73-.28-.59.56-.64,1.11a.28.28,0,0,1-.5.14A4.31,4.31,0,0,1,79,43.48c-.07-1,2-.34,1.71-1.81-.07-.36-.3-1.86-.3-2.23s-.1-1.31.75-.78a.29.29,0,0,1,.13.19c.3,1.75,1.16,7.94,1.88,8a1.19,1.19,0,0,0,.81-2A7.48,7.48,0,0,1,83.5,42a.26.26,0,0,1,.13-.23.69.69,0,0,1,.7,0,.26.26,0,0,1,.14.31,3.7,3.7,0,0,0,.21,2.82c.69,1.78-1.48,2.87-1.48,3.35s0,1.19.74,1.19.89-.63.93-1.14a.27.27,0,0,1,.53,0,.34.34,0,0,1,0,.15c0,3.45-2.68.62-2.27,2.89,0,.08,0,.45,0,.5.75.51.85-.27,1.34-.27s.67.52,1.08,1a.28.28,0,0,1,.07.25c-.07.27-.22.81-.33.55-.5-1.21-1.22-.76-1.48-.55a.3.3,0,0,0-.1.21l0,2.19c0,.39,0,1.82,1.31.12.4-.52.61.39.65.58v.06c-.06.84-2.63,2.07-3.47,3.09-1.32,1.61-4.59,1.23-5.7.32A4.48,4.48,0,0,1,75.75,58a.31.31,0,0,0-.26-.14c-1.26.1-5.73,1-5.73,1.76s1.18.73,1.47.73c.93,0,2.46-1,2.83-1s.25,0,.33.16a.24.24,0,0,1,0,.23c-.2.59-1.65,1.33-3,1.58-2.33.43-3-1.32-2.94-1.9.26-1.89,8.11-1.85,8.35-4.25.08-.78.43-2.05-2.12-.66-.84.46-1.63-.21-2-.21,0,0-5.08,4.66-6.76,4.6-.7,0-3.06-.83-3.26-2.44-.12-.94.81-1.28,1.15-1.61a.25.25,0,0,1,.2-.09h.2a.28.28,0,0,1,.24.41c-.19.31-.54.59-.65.89-.32.89,1.39,1.71,2.2,1.67,1,0,5.72-3.23,5.72-5.21,0-.38-.64-1.07-1.67-.22a9.64,9.64,0,0,1-4,1.28,1.79,1.79,0,0,1-2-1.51,1.55,1.55,0,0,1,1-1.47,4.15,4.15,0,0,1,2.1,0,.25.25,0,0,1,.19.15.65.65,0,0,1,.12.32.27.27,0,0,1-.29.26c-.75,0-2.22-.26-2.22.71s1.26,1,2.56.46a17.79,17.79,0,0,0,5.27-3.18C74.26,47.81,76,42,75.16,42a54.09,54.09,0,0,0-5.48,3.5,8.1,8.1,0,0,1,1,2.15c0,1.3-1.69,2.23-2.38,2.23a15.34,15.34,0,0,1-1.8-.44.28.28,0,0,1-.18-.14c-.43-.78,0-.95.17-1.1a.33.33,0,0,1,.21-.09h.32c.37,0,.69.58,1.06.58,1,0,1-.74,1-1,0-1.48-1.63-1-1.93-1-1.48,0-7.87,2-7.87,4.61,0,.5.71,1.36,1.1,1.34,1.2-.08,1.63-2.4,2.5-2.86s.86.35.86.45,0,0,0,0c0,1.5-2.23,2.26-2.23,3.43,0,.37.06-.05.28.64a.46.46,0,0,1-.4.66.21.21,0,0,1-.22-.08c-.89-1-3.08-1.57-3.08-3.16,0-2,1.48-1.87,1.48-3,0-.37.38-.89.75-.89,1.26,0,7.59-2.67,8-3.15,1-1.13,1.17-.78,1.17-2,0-1.07-.09-1.63-1-1.63A1.71,1.71,0,0,0,67,42.12c0,.67.29.61.67.75a.28.28,0,0,1,.07.48,1.85,1.85,0,0,1-1,.4c-.69,0-1-.91-1-1.11,0-1.17,1.84-2.75,2.68-2.75,3,0,1.44,3.71,2.6,3.12,2-1,4.29-2.14,5.12-3.47a11.33,11.33,0,0,0,1.64-4.63c0-1-.73-1-1-1-1.08,0-5.5,2.15-5.5,3.49,0,.44-.15.82.69,1.27,0,0,.26.2.82,0,.37-.13.25-.73.13-1.13a.27.27,0,0,1,.26-.35h0a.27.27,0,0,1,.21.09A2.14,2.14,0,0,1,74,38.48c0,1.06-1.16,1.26-1.56,1.26a2.21,2.21,0,0,1-2-3c-.13-.11.07-.09-.3-.09-1.07,0-3.54,2.11-4.88,3.78a14.72,14.72,0,0,1-3.33,2.81.27.27,0,0,0,0,.43,2.56,2.56,0,0,0,.76.37.28.28,0,0,1,.18.26v.33a.28.28,0,0,1-.13.24,11.05,11.05,0,0,1-3,1c-1.51.58-1.42,1.46-2.56,1.46s-1.18-.4-2.32-1.43a.25.25,0,0,1-.07-.3.77.77,0,0,1,.07-.16.27.27,0,0,1,.26-.18h.32a.28.28,0,0,1,.23.13c.46.71.73.75,1.29.75,1.06,0,1.9-1,2.79-1.91a2.47,2.47,0,0,0,.51-1.28.27.27,0,0,1,.15-.21c4.37-2.34,6.21-5.5,6.21-6,0-.69-.73-.74-1.12-.74-.59,0-2.75.61-2.75,1.48,0,.37.38,1.13.3,1.49a1.58,1.58,0,0,1-2.21,1.17.32.32,0,0,1-.07-.44.28.28,0,0,1,.18-.14c1.48-.39,1.06-1.53,1.06-2a.69.69,0,0,0-.74-.67c-2.67,0-2.53,2.34-2.53,3.41,0,.38.27,1.79.3,2.16a1.48,1.48,0,0,1-1.71,1.56c-.37,0-1.26-.5-1.26-1.12V42.8a.27.27,0,0,1,.46-.19,1.24,1.24,0,0,0,1.24.47c1-.24.29-2.87,0-3.71a.23.23,0,0,0-.39-.07h0s-1.93,3.4-3.28,3.3c-2.2-.15-2.18-3.28-1.93-4.33.2-.83,1.36-2.05,2.34-1.27a.27.27,0,0,1-.14.48c-1.34.18-1.71,3-.46,3.77,1.43.85,3.91-4.29,3.91-4.34,0-.93-.89-1.36-.89-2.53a1.78,1.78,0,0,1,1.7-2,.72.72,0,0,1,.81.39.28.28,0,0,1-.31.39c-.9-.19-1.16.47-1.16,1.4A1.86,1.86,0,0,0,59.43,36c.89,0,4-.61,3.56-1-2.88-2.23-.68-4.2-.1-3.82.89.58-.27.66-.2,1.44.18,2,5.5,2.6,5.8,2.6.48,0,8.32-2.87,8.32-3.86,0-.8-2.58-2.5-3.28-2.89s-.77-.17-.75.3c0,0,0,.05,0,.07.62,2-.81,3.49-4,4.58l-.12,0c-.43,0-.63-.24-.61-.6.08-1.39,4.06-.69,3.72-2.74-.06-.37-.23-.67-.6-.67s-1.42,1.05-2.69.67-2.67-2.44-3.06-1c-.29,1.07,0,1.69,1.15,1.71a.27.27,0,0,1,.28.27h0a.27.27,0,0,1-.26.27c-1.61.1-2.12-.63-2.25-1.33-.2-1,1.19-2.82,1-2.79-2.94.62-4,.12-6.7-2.17-1.86-1.59-3.24,2.2-2.81,3.11.26.55.52.67.82.67s3.27-.45,3.64-.45c.7,0,2.82.08,2.67,1.26s-1,.51-1,.51c-.37,0-.39-1-1.72-.88-3.58.45-5.82,1.48-5.82,3.95A6.61,6.61,0,0,0,55.18,35a.28.28,0,0,1-.22.39h-.21c-1,0-1.16-1.54-1.14-2.14.1-2.88,1.62-2.26,1.62-3.29,0-1.24-.51-2-.21-3.3.41-1.72,2.06-3.85,4.16-2.71l.52.51c1.85,1.85,3.65,2.33,5.52,1.67,1.42-.5,1.31,1,1.62,1.47.7,1.05,1.17,1.55,2.24,1.55s3.1-.43,3.52-2.05c.18-.66-4.25-4.65-5.16-4.65s-.59.74-.59,1.13c0,2.55,3.12.43,3.12,3a1.56,1.56,0,0,1-1,1.12c-.37,0-.67-.15-.67-.52s.3-.6.3-1c0-1.06-3-.48-3-2.23,0-.37.29-1.11.29-1.48,0-.84-1.6-1.1-2-1A2.28,2.28,0,0,0,62.1,23c0,.38.3.83.67.83s.41-.12.91-.25a.28.28,0,0,1,.35.24v.09c0,.65-1.21,1-1.41,1A2.08,2.08,0,0,1,60.77,23a3,3,0,0,1,2.3-2.57c1.1-.29,2.09.44,2.65-.09s0-1.71,1.18-2.14c.66-.25,1.56.07,2.27.06a.25.25,0,0,0,.18-.08c1.12-1.18.46-2.69,2.33-2.69h0c.25,0,.36.41.12.44-1.23.13-1.32,2.21-1.71,3a.31.31,0,0,1-.16.14c-1,.39-2.94-.7-2.94.77,0,.89,1.7,2.06,1.79,2.08,1.22.36,8.28,8,9.35,8a.84.84,0,0,0,.9-.75c0-.37-.71-2-1-3a30.07,30.07,0,0,0-.89-4.29c-.42-1.06-3-4.05-3.86-4.05-.71,0-.77.67-.83,1.19A3.48,3.48,0,0,0,73,20.72a1.19,1.19,0,0,0,1,.75c.37,0,.4-.17.78-.57a.28.28,0,0,1,.38,0,.5.5,0,0,1,.17.43c0,.37-.59.44-.59.82s1.55,1.29,1.34,2.3c-.12.54-1.18,1.14-1.56,1.19C74,25.69,74,25.26,74,25a.25.25,0,0,1,.12-.19c.35-.22,1-.13.94-.71-.11-1.33-3.63-2.11-3.67-4.7,0-.8.19-2.44,1.87-2.58,2-.16,3,2.44,3.52,3,1,1,.62-.56.49-1.3a7.34,7.34,0,0,0-1.34-2.3c-.12-.18-.43-.52.18-.49.78.05.58,1,1.75,1a13.86,13.86,0,0,0,1.74-.26.25.25,0,0,1,.26.09,1,1,0,0,1,.16.24.28.28,0,0,1-.25.37c-.61,0-1.61.12-1.61,1s.91,11.82,3,11.82c1.2,0,6.36-5.48,6.68-6.62.51-1.79-1.87-3.72-2.78-3.72-1.11,0-3,1.66-2.73,3.08.1.48.86.11,1,0l.07-.06c.55-.59.9-.06,1.47,0s1-.35,1.15.38c.18,1.27-.77.52-2,.47-.93,0-2.56-.27-2.63,1.2-.06,1.13,1,1.29,1.75,1.1a.27.27,0,0,1,.34.26h0a.28.28,0,0,1-.08.2,1.68,1.68,0,0,1-1.2.49,1.51,1.51,0,0,1-1.59-1C80,23.54,82,20.43,82,20.06s-.57-1.51-1.16-1.51-.58.64-.66,1.14a.28.28,0,0,1-.49.13,1.08,1.08,0,0,1-.29-.69,1.55,1.55,0,0,1,1.41-1.53c1.27.13,1.45,1.94,2.15,1.94.37,0,.82-.83,1.93-.9,1.52-.09,3.45,2,3.84,3.28a2.73,2.73,0,0,1-.2,2.67c-.39.73-6.53,6.78-6.53,6.83,0,.5,3.66.89,3.71.89.86,0,3.36-1.77,7.43.08,1.61.73,2.22,1.31,2.08.07-.19-1.61-.84-3.23-1.58-3.23-.37,0-1.35,1-2.48,1a21.54,21.54,0,0,0-2.86,0c-.62.07-2,.52-2.53.62s-.39-.13-.38-.27a.28.28,0,0,1,.08-.15,31.83,31.83,0,0,0,3.3-3.73.27.27,0,0,1,.31-.1,1.42,1.42,0,0,1,.25.12.27.27,0,0,1,.07.41c-.72.83-2.17,2.13-2.07,2.44S91,27.6,91.45,27.41c.34-.13.38.09.38.25a.26.26,0,0,1-.11.21c-.53.39-2.52,1.26-2.33,1.55.39.58,4.53-.6,4-1.78S92.15,26.51,91.15,26c-.69-.34-.75-.8-1.2-1.39a.31.31,0,0,1-.06-.13c0-.19,0-.67.37-.62.69.07.57.84,1.67,1.57.67.44,1.52.72,2.2,1.14s2.36,2.36,2.28,7c0,0,.16,1.34-1,1.1s-3.36-2.81-7.13-2.08c-1,.19-1.56.11-1.56.89,0,.5,2.39,2.83,3.86,3.06.85.13.71-1.32.28-2.34a.28.28,0,0,1,.41-.34,1.78,1.78,0,0,1,.8,1.33c.06.37-.3.89-.3,1.26a.68.68,0,0,0,.41.7c1.17.71,2.76,3.2,3.7,3.06s1-1.66.65-2.43a2.37,2.37,0,0,0-1.1-1.09.27.27,0,0,1,.24-.49,2.79,2.79,0,0,1,2,2.27c.12,1,0,2.44-1.32,2.87-.94.31-1-.66-1.65-.59-.48.06-1.08.74-1,1,.29.89,1,.48,1.55.59a.29.29,0,0,1,.22.33.56.56,0,0,1-.48.46c-.43.08-1.94.23-2.24-1.06s.89-1.69.81-2.05a4.18,4.18,0,0,0-2.47-2.44c-4.55-.37-4.71-4.1-8.15-4.1-.59,0-1,.19-1,.67a68.32,68.32,0,0,0,4,5.64c1,1.35,1.48,1.95,2.35,2.2a1,1,0,0,0,1.36-.78c.11-1.89-2.1-1.89-2.21-2.58s.45-.56.62-.54a.12.12,0,0,1,.09,0c1.87,1,2.66,1.61,2.66,3.18,0,2.28-2.49,1.06-2.49,2.13,0,.38.44.75.44,1.12s2.4,4.37,3.5,4.43a1.29,1.29,0,0,0,1.25-1.24c0-1.13-2.77-.91-2.82-3,0-.74.52-.75.82-.7a.27.27,0,0,1,.23.22c.19.88.84,1.59,1.33,1.59.65,0,1.34-1.12,2.3-1.34.73-.16.72.44.68.72a.25.25,0,0,1-.14.2c-1,.54-1.5.52-1.5,1.61,0,.37.54,1.2.44,1.56-.29,1-1.28.9-2.3,1.71a7.94,7.94,0,0,0-1.54,2c-.92,1.38-1.88,3.75-3.29,3.75a.91.91,0,0,1-.68-.3.28.28,0,0,1,0-.41c2.21-1.87,3.35-3.07,3.35-5.6,0-.8-1.68-4.09-2.68-4.09-.67,0-.44.69-.44.75,0,.37.29,1.33.29,1.7s-.59,2.08-.59,2.45a1,1,0,0,0,.74,1c.4,0,.42-.26.5-.55a.27.27,0,0,1,.44-.13,1,1,0,0,1,.4.76c0,.37-1,1.11-1.41,1.11-.88,0-1.41-2.13-1.41-2.23,0-.37.44-2,.44-2.37s-.44-1.56-.44-1.93c0-1.69,1-.6,1-2.08,0-1-5.53-7.82-6.71-9.27a.27.27,0,0,0-.22-.1h-1" transform="translate(-6.76 -5.58)"/><path class="cls-4" d="M79.45,30.54a1.4,1.4,0,0,1,1.26,1.34,1.2,1.2,0,0,1-1.19,1.19,1.33,1.33,0,0,1-1.33-1.34A1.32,1.32,0,0,1,79.45,30.54Z" transform="translate(-6.76 -5.58)"/><path class="cls-1" d="M80.92,32.39a47.14,47.14,0,0,0,6.4-5.9c2.06-2.54,3.2-5.45,4.61-8.36a19.94,19.94,0,0,1,7.69-8.45c3.36-1.95,7-1.79,10.69-1.23,4.59.7,9,1.31,13.58,0A1.25,1.25,0,0,0,123.22,6c-4.16,1.2-8.23.6-12.43,0-3.7-.55-7.41-.81-10.92.74a21.32,21.32,0,0,0-8.75,7.77c-1.93,2.9-2.86,6.31-4.82,9.19s-4.63,4.78-7.14,6.92c-1.23,1,.54,2.8,1.76,1.76Z" transform="translate(-6.76 -5.58)"/></svg>